<?xml version="1.0" encoding="UTF-8" standalone="no"?>
<!DOCTYPE svg PUBLIC "-//W3C//DTD SVG 1.1//EN"
 "http://www.w3.org/Graphics/SVG/1.1/DTD/svg11.dtd">
<!-- Generated by graphviz version 2.42.1 (20190717.1914)
 -->
<!-- Title: coresubsys Pages: 1 -->
<svg width="1238pt" height="332pt"
 viewBox="0.00 0.00 1237.50 332.00" xmlns="http://www.w3.org/2000/svg" xmlns:xlink="http://www.w3.org/1999/xlink">
<g id="graph0" class="graph" transform="scale(1 1) rotate(0) translate(4 328)">
<title>coresubsys</title>
<polygon fill="white" stroke="transparent" points="-4,4 -4,-328 1233.5,-328 1233.5,4 -4,4"/>
<!-- core -->
<g id="node1" class="node">
<title>core</title>
<path fill="none" stroke="black" d="M718.5,-324C718.5,-324 682.5,-324 682.5,-324 676.5,-324 670.5,-318 670.5,-312 670.5,-312 670.5,-300 670.5,-300 670.5,-294 676.5,-288 682.5,-288 682.5,-288 718.5,-288 718.5,-288 724.5,-288 730.5,-294 730.5,-300 730.5,-300 730.5,-312 730.5,-312 730.5,-318 724.5,-324 718.5,-324"/>
<text text-anchor="middle" x="700.5" y="-302.3" font-family="Times,serif" font-size="14.00">Xt Core</text>
</g>
<!-- apipoint -->
<g id="node2" class="node">
<title>apipoint</title>
<path fill="none" stroke="black" d="M758.5,-252C758.5,-252 642.5,-252 642.5,-252 636.5,-252 630.5,-246 630.5,-240 630.5,-240 630.5,-228 630.5,-228 630.5,-222 636.5,-216 642.5,-216 642.5,-216 758.5,-216 758.5,-216 764.5,-216 770.5,-222 770.5,-228 770.5,-228 770.5,-240 770.5,-240 770.5,-246 764.5,-252 758.5,-252"/>
<text text-anchor="middle" x="700.5" y="-230.3" font-family="Times,serif" font-size="14.00">Xt: RPC API endpoint</text>
</g>
<!-- core&#45;&gt;apipoint -->
<g id="edge1" class="edge">
<title>core&#45;&gt;apipoint</title>
<path fill="none" stroke="black" d="M700.5,-277.67C700.5,-272.69 700.5,-267.49 700.5,-262.51"/>
<polygon fill="black" stroke="black" points="697,-277.7 700.5,-287.7 704,-277.7 697,-277.7"/>
<polygon fill="black" stroke="black" points="704,-262.1 700.5,-252.1 697,-262.1 704,-262.1"/>
</g>
<!-- afrontends -->
<g id="node3" class="node">
<title>afrontends</title>
<path fill="none" stroke="black" d="M537,-180C537,-180 398,-180 398,-180 392,-180 386,-174 386,-168 386,-168 386,-156 386,-156 386,-150 392,-144 398,-144 398,-144 537,-144 537,-144 543,-144 549,-150 549,-156 549,-156 549,-168 549,-168 549,-174 543,-180 537,-180"/>
<text text-anchor="middle" x="467.5" y="-158.3" font-family="Times,serif" font-size="14.00">Xt: Frontend API endpoint</text>
</g>
<!-- apipoint&#45;&gt;afrontends -->
<g id="edge2" class="edge">
<title>apipoint&#45;&gt;afrontends</title>
<path fill="none" stroke="black" d="M633.79,-212.96C602.61,-203.59 565.57,-192.46 534.36,-183.09"/>
<polygon fill="black" stroke="black" points="633.22,-216.44 643.8,-215.97 635.23,-209.74 633.22,-216.44"/>
<polygon fill="black" stroke="black" points="535.04,-179.64 524.45,-180.11 533.02,-186.34 535.04,-179.64"/>
</g>
<!-- aplugins -->
<g id="node9" class="node">
<title>aplugins</title>
<path fill="none" stroke="black" d="M763,-180C763,-180 638,-180 638,-180 632,-180 626,-174 626,-168 626,-168 626,-156 626,-156 626,-150 632,-144 638,-144 638,-144 763,-144 763,-144 769,-144 775,-150 775,-156 775,-156 775,-168 775,-168 775,-174 769,-180 763,-180"/>
<text text-anchor="middle" x="700.5" y="-158.3" font-family="Times,serif" font-size="14.00">Xt: Plugin API endpoint</text>
</g>
<!-- apipoint&#45;&gt;aplugins -->
<g id="edge3" class="edge">
<title>apipoint&#45;&gt;aplugins</title>
<path fill="none" stroke="black" d="M700.5,-205.67C700.5,-200.69 700.5,-195.49 700.5,-190.51"/>
<polygon fill="black" stroke="black" points="697,-205.7 700.5,-215.7 704,-205.7 697,-205.7"/>
<polygon fill="black" stroke="black" points="704,-190.1 700.5,-180.1 697,-190.1 704,-190.1"/>
</g>
<!-- amodules -->
<g id="node13" class="node">
<title>amodules</title>
<path fill="none" stroke="black" d="M983,-180C983,-180 850,-180 850,-180 844,-180 838,-174 838,-168 838,-168 838,-156 838,-156 838,-150 844,-144 850,-144 850,-144 983,-144 983,-144 989,-144 995,-150 995,-156 995,-156 995,-168 995,-168 995,-174 989,-180 983,-180"/>
<text text-anchor="middle" x="916.5" y="-158.3" font-family="Times,serif" font-size="14.00">Xt: Module API endpoint</text>
</g>
<!-- apipoint&#45;&gt;amodules -->
<g id="edge4" class="edge">
<title>apipoint&#45;&gt;amodules</title>
<path fill="none" stroke="black" d="M762.75,-212.83C791.46,-203.52 825.46,-192.5 854.18,-183.2"/>
<polygon fill="black" stroke="black" points="761.5,-209.55 753.06,-215.97 763.66,-216.21 761.5,-209.55"/>
<polygon fill="black" stroke="black" points="855.27,-186.52 863.7,-180.11 853.11,-179.86 855.27,-186.52"/>
</g>
<!-- frontends -->
<g id="node4" class="node">
<title>frontends</title>
<path fill="none" stroke="black" d="M354.5,-108C354.5,-108 286.5,-108 286.5,-108 280.5,-108 274.5,-102 274.5,-96 274.5,-96 274.5,-84 274.5,-84 274.5,-78 280.5,-72 286.5,-72 286.5,-72 354.5,-72 354.5,-72 360.5,-72 366.5,-78 366.5,-84 366.5,-84 366.5,-96 366.5,-96 366.5,-102 360.5,-108 354.5,-108"/>
<text text-anchor="middle" x="320.5" y="-86.3" font-family="Times,serif" font-size="14.00">Xt: Frontends</text>
</g>
<!-- afrontends&#45;&gt;frontends -->
<g id="edge5" class="edge">
<title>afrontends&#45;&gt;frontends</title>
<path fill="none" stroke="black" d="M422.4,-139.52C404.33,-130.92 383.56,-121.03 365.51,-112.43"/>
<polygon fill="black" stroke="black" points="421.01,-142.74 431.54,-143.88 424.02,-136.42 421.01,-142.74"/>
<polygon fill="black" stroke="black" points="366.88,-109.21 356.34,-108.07 363.87,-115.53 366.88,-109.21"/>
</g>
<!-- qtf -->
<g id="node5" class="node">
<title>qtf</title>
<path fill="none" stroke="black" d="M89,-36C89,-36 12,-36 12,-36 6,-36 0,-30 0,-24 0,-24 0,-12 0,-12 0,-6 6,0 12,0 12,0 89,0 89,0 95,0 101,-6 101,-12 101,-12 101,-24 101,-24 101,-30 95,-36 89,-36"/>
<text text-anchor="middle" x="50.5" y="-14.3" font-family="Times,serif" font-size="14.00">Xt: Qt frontend</text>
</g>
<!-- frontends&#45;&gt;qtf -->
<g id="edge6" class="edge">
<title>frontends&#45;&gt;qtf</title>
<path fill="none" stroke="black" d="M264.38,-75.46C224.12,-65.62 168.34,-51.73 111.24,-36.43"/>
<polygon fill="black" stroke="black" points="263.74,-78.91 274.28,-77.88 265.4,-72.11 263.74,-78.91"/>
<polygon fill="black" stroke="black" points="111.88,-32.98 101.32,-33.76 110.07,-39.74 111.88,-32.98"/>
</g>
<!-- gtkf -->
<g id="node6" class="node">
<title>gtkf</title>
<path fill="none" stroke="black" d="M222,-36C222,-36 131,-36 131,-36 125,-36 119,-30 119,-24 119,-24 119,-12 119,-12 119,-6 125,0 131,0 131,0 222,0 222,0 228,0 234,-6 234,-12 234,-12 234,-24 234,-24 234,-30 228,-36 222,-36"/>
<text text-anchor="middle" x="176.5" y="-14.3" font-family="Times,serif" font-size="14.00">Xt: GTK frontend</text>
</g>
<!-- frontends&#45;&gt;gtkf -->
<g id="edge7" class="edge">
<title>frontends&#45;&gt;gtkf</title>
<path fill="none" stroke="black" d="M276.07,-67.4C258.66,-58.94 238.71,-49.24 221.26,-40.76"/>
<polygon fill="black" stroke="black" points="274.75,-70.65 285.27,-71.88 277.81,-64.36 274.75,-70.65"/>
<polygon fill="black" stroke="black" points="222.39,-37.41 211.86,-36.19 219.33,-43.71 222.39,-37.41"/>
</g>
<!-- tuif -->
<g id="node7" class="node">
<title>tuif</title>
<path fill="none" stroke="black" d="M377,-36C377,-36 264,-36 264,-36 258,-36 252,-30 252,-24 252,-24 252,-12 252,-12 252,-6 258,0 264,0 264,0 377,0 377,0 383,0 389,-6 389,-12 389,-12 389,-24 389,-24 389,-30 383,-36 377,-36"/>
<text text-anchor="middle" x="320.5" y="-14.3" font-family="Times,serif" font-size="14.00">Xt: Terminal frontend</text>
</g>
<!-- frontends&#45;&gt;tuif -->
<g id="edge8" class="edge">
<title>frontends&#45;&gt;tuif</title>
<path fill="none" stroke="black" d="M320.5,-61.67C320.5,-56.69 320.5,-51.49 320.5,-46.51"/>
<polygon fill="black" stroke="black" points="317,-61.7 320.5,-71.7 324,-61.7 317,-61.7"/>
<polygon fill="black" stroke="black" points="324,-46.1 320.5,-36.1 317,-46.1 324,-46.1"/>
</g>
<!-- clif -->
<g id="node8" class="node">
<title>clif</title>
<path fill="none" stroke="black" d="M504,-36C504,-36 419,-36 419,-36 413,-36 407,-30 407,-24 407,-24 407,-12 407,-12 407,-6 413,0 419,0 419,0 504,0 504,0 510,0 516,-6 516,-12 516,-12 516,-24 516,-24 516,-30 510,-36 504,-36"/>
<text text-anchor="middle" x="461.5" y="-14.3" font-family="Times,serif" font-size="14.00">Xt: CLI frontend</text>
</g>
<!-- frontends&#45;&gt;clif -->
<g id="edge9" class="edge">
<title>frontends&#45;&gt;clif</title>
<path fill="none" stroke="black" d="M364,-67.4C381.05,-58.94 400.59,-49.24 417.67,-40.76"/>
<polygon fill="black" stroke="black" points="362.39,-64.29 354.99,-71.88 365.51,-70.56 362.39,-64.29"/>
<polygon fill="black" stroke="black" points="419.47,-43.77 426.87,-36.19 416.36,-37.5 419.47,-43.77"/>
</g>
<!-- plugins -->
<g id="node10" class="node">
<title>plugins</title>
<path fill="none" stroke="black" d="M727.5,-108C727.5,-108 673.5,-108 673.5,-108 667.5,-108 661.5,-102 661.5,-96 661.5,-96 661.5,-84 661.5,-84 661.5,-78 667.5,-72 673.5,-72 673.5,-72 727.5,-72 727.5,-72 733.5,-72 739.5,-78 739.5,-84 739.5,-84 739.5,-96 739.5,-96 739.5,-102 733.5,-108 727.5,-108"/>
<text text-anchor="middle" x="700.5" y="-86.3" font-family="Times,serif" font-size="14.00">Xt: Plugins</text>
</g>
<!-- aplugins&#45;&gt;plugins -->
<g id="edge10" class="edge">
<title>aplugins&#45;&gt;plugins</title>
<path fill="none" stroke="black" d="M700.5,-133.67C700.5,-128.69 700.5,-123.49 700.5,-118.51"/>
<polygon fill="black" stroke="black" points="697,-133.7 700.5,-143.7 704,-133.7 697,-133.7"/>
<polygon fill="black" stroke="black" points="704,-118.1 700.5,-108.1 697,-118.1 704,-118.1"/>
</g>
<!-- spell_check -->
<g id="node11" class="node">
<title>spell_check</title>
<path fill="none" stroke="black" d="M679,-36C679,-36 546,-36 546,-36 540,-36 534,-30 534,-24 534,-24 534,-12 534,-12 534,-6 540,0 546,0 546,0 679,0 679,0 685,0 691,-6 691,-12 691,-12 691,-24 691,-24 691,-30 685,-36 679,-36"/>
<text text-anchor="middle" x="612.5" y="-14.3" font-family="Times,serif" font-size="14.00">Xt Plugin: Spell checking</text>
</g>
<!-- plugins&#45;&gt;spell_check -->
<g id="edge11" class="edge">
<title>plugins&#45;&gt;spell_check</title>
<path fill="none" stroke="black" d="M670.72,-65.31C661.41,-57.9 651.14,-49.74 641.86,-42.35"/>
<polygon fill="black" stroke="black" points="668.74,-68.21 678.75,-71.7 673.1,-62.73 668.74,-68.21"/>
<polygon fill="black" stroke="black" points="644.01,-39.59 634,-36.1 639.65,-45.07 644.01,-39.59"/>
</g>
<!-- auto_wrap -->
<g id="node12" class="node">
<title>auto_wrap</title>
<path fill="none" stroke="black" d="M855.5,-36C855.5,-36 721.5,-36 721.5,-36 715.5,-36 709.5,-30 709.5,-24 709.5,-24 709.5,-12 709.5,-12 709.5,-6 715.5,0 721.5,0 721.5,0 855.5,0 855.5,0 861.5,0 867.5,-6 867.5,-12 867.5,-12 867.5,-24 867.5,-24 867.5,-30 861.5,-36 855.5,-36"/>
<text text-anchor="middle" x="788.5" y="-14.3" font-family="Times,serif" font-size="14.00">Xt Plugin: Auto wrapping</text>
</g>
<!-- plugins&#45;&gt;auto_wrap -->
<g id="edge12" class="edge">
<title>plugins&#45;&gt;auto_wrap</title>
<path fill="none" stroke="black" d="M730.28,-65.31C739.59,-57.9 749.86,-49.74 759.14,-42.35"/>
<polygon fill="black" stroke="black" points="727.9,-62.73 722.25,-71.7 732.26,-68.21 727.9,-62.73"/>
<polygon fill="black" stroke="black" points="761.35,-45.07 767,-36.1 756.99,-39.59 761.35,-45.07"/>
</g>
<!-- modules -->
<g id="node14" class="node">
<title>modules</title>
<path fill="none" stroke="black" d="M991.5,-108C991.5,-108 929.5,-108 929.5,-108 923.5,-108 917.5,-102 917.5,-96 917.5,-96 917.5,-84 917.5,-84 917.5,-78 923.5,-72 929.5,-72 929.5,-72 991.5,-72 991.5,-72 997.5,-72 1003.5,-78 1003.5,-84 1003.5,-84 1003.5,-96 1003.5,-96 1003.5,-102 997.5,-108 991.5,-108"/>
<text text-anchor="middle" x="960.5" y="-86.3" font-family="Times,serif" font-size="14.00">Xt: Modules</text>
</g>
<!-- amodules&#45;&gt;modules -->
<g id="edge13" class="edge">
<title>amodules&#45;&gt;modules</title>
<path fill="none" stroke="black" d="M932.79,-135.08C936.51,-129.17 940.45,-122.89 944.17,-116.98"/>
<polygon fill="black" stroke="black" points="929.73,-133.37 927.38,-143.7 935.66,-137.09 929.73,-133.37"/>
<polygon fill="black" stroke="black" points="947.39,-118.43 949.75,-108.1 941.46,-114.71 947.39,-118.43"/>
</g>
<!-- text_edit -->
<g id="node15" class="node">
<title>text_edit</title>
<path fill="none" stroke="black" d="M1023.5,-36C1023.5,-36 897.5,-36 897.5,-36 891.5,-36 885.5,-30 885.5,-24 885.5,-24 885.5,-12 885.5,-12 885.5,-6 891.5,0 897.5,0 897.5,0 1023.5,0 1023.5,0 1029.5,0 1035.5,-6 1035.5,-12 1035.5,-12 1035.5,-24 1035.5,-24 1035.5,-30 1029.5,-36 1023.5,-36"/>
<text text-anchor="middle" x="960.5" y="-14.3" font-family="Times,serif" font-size="14.00">Xt Module: Text editing</text>
</g>
<!-- modules&#45;&gt;text_edit -->
<g id="edge14" class="edge">
<title>modules&#45;&gt;text_edit</title>
<path fill="none" stroke="black" d="M960.5,-61.67C960.5,-56.69 960.5,-51.49 960.5,-46.51"/>
<polygon fill="black" stroke="black" points="957,-61.7 960.5,-71.7 964,-61.7 957,-61.7"/>
<polygon fill="black" stroke="black" points="964,-46.1 960.5,-36.1 957,-46.1 964,-46.1"/>
</g>
<!-- completion -->
<g id="node16" class="node">
<title>completion</title>
<path fill="none" stroke="black" d="M1217.5,-36C1217.5,-36 1065.5,-36 1065.5,-36 1059.5,-36 1053.5,-30 1053.5,-24 1053.5,-24 1053.5,-12 1053.5,-12 1053.5,-6 1059.5,0 1065.5,0 1065.5,0 1217.5,0 1217.5,0 1223.5,0 1229.5,-6 1229.5,-12 1229.5,-12 1229.5,-24 1229.5,-24 1229.5,-30 1223.5,-36 1217.5,-36"/>
<text text-anchor="middle" x="1141.5" y="-14.3" font-family="Times,serif" font-size="14.00">Xt Module: Auto completion</text>
</g>
<!-- modules&#45;&gt;completion -->
<g id="edge15" class="edge">
<title>modules&#45;&gt;completion</title>
<path fill="none" stroke="black" d="M1013.4,-68.54C1036.8,-59.49 1064.28,-48.86 1087.78,-39.78"/>
<polygon fill="black" stroke="black" points="1011.92,-65.36 1003.85,-72.23 1014.44,-71.89 1011.92,-65.36"/>
<polygon fill="black" stroke="black" points="1089.18,-42.99 1097.24,-36.12 1086.65,-36.46 1089.18,-42.99"/>
</g>
</g>
</svg>
