<?xml version="1.0" encoding="UTF-8" standalone="no"?>
<!DOCTYPE svg PUBLIC "-//W3C//DTD SVG 1.1//EN"
 "http://www.w3.org/Graphics/SVG/1.1/DTD/svg11.dtd">
<!-- Generated by graphviz version 2.40.1 (20161225.0304)
 -->
<!-- Title: coresubsys Pages: 1 -->
<svg width="1527pt" height="332pt"
 viewBox="0.00 0.00 1526.50 332.00" xmlns="http://www.w3.org/2000/svg" xmlns:xlink="http://www.w3.org/1999/xlink">
<g id="graph0" class="graph" transform="scale(1 1) rotate(0) translate(4 328)">
<title>coresubsys</title>
<polygon fill="#ffffff" stroke="transparent" points="-4,4 -4,-328 1522.5,-328 1522.5,4 -4,4"/>
<!-- core -->
<g id="node1" class="node">
<title>core</title>
<path fill="none" stroke="#000000" d="M895.5,-324C895.5,-324 847.5,-324 847.5,-324 841.5,-324 835.5,-318 835.5,-312 835.5,-312 835.5,-300 835.5,-300 835.5,-294 841.5,-288 847.5,-288 847.5,-288 895.5,-288 895.5,-288 901.5,-288 907.5,-294 907.5,-300 907.5,-300 907.5,-312 907.5,-312 907.5,-318 901.5,-324 895.5,-324"/>
<text text-anchor="middle" x="871.5" y="-302.3" font-family="Times,serif" font-size="14.00" fill="#000000">Xt Core</text>
</g>
<!-- apipoint -->
<g id="node2" class="node">
<title>apipoint</title>
<path fill="none" stroke="#000000" d="M945.5,-252C945.5,-252 797.5,-252 797.5,-252 791.5,-252 785.5,-246 785.5,-240 785.5,-240 785.5,-228 785.5,-228 785.5,-222 791.5,-216 797.5,-216 797.5,-216 945.5,-216 945.5,-216 951.5,-216 957.5,-222 957.5,-228 957.5,-228 957.5,-240 957.5,-240 957.5,-246 951.5,-252 945.5,-252"/>
<text text-anchor="middle" x="871.5" y="-230.3" font-family="Times,serif" font-size="14.00" fill="#000000">Xt: RPC API endpoint</text>
</g>
<!-- core&#45;&gt;apipoint -->
<g id="edge1" class="edge">
<title>core&#45;&gt;apipoint</title>
<path fill="none" stroke="#000000" d="M871.5,-277.5726C871.5,-272.6792 871.5,-267.5904 871.5,-262.6901"/>
<polygon fill="#000000" stroke="#000000" points="868.0001,-277.8313 871.5,-287.8314 875.0001,-277.8314 868.0001,-277.8313"/>
<polygon fill="#000000" stroke="#000000" points="875.0001,-262.4132 871.5,-252.4133 868.0001,-262.4133 875.0001,-262.4132"/>
</g>
<!-- afrontends -->
<g id="node3" class="node">
<title>afrontends</title>
<path fill="none" stroke="#000000" d="M677.5,-180C677.5,-180 495.5,-180 495.5,-180 489.5,-180 483.5,-174 483.5,-168 483.5,-168 483.5,-156 483.5,-156 483.5,-150 489.5,-144 495.5,-144 495.5,-144 677.5,-144 677.5,-144 683.5,-144 689.5,-150 689.5,-156 689.5,-156 689.5,-168 689.5,-168 689.5,-174 683.5,-180 677.5,-180"/>
<text text-anchor="middle" x="586.5" y="-158.3" font-family="Times,serif" font-size="14.00" fill="#000000">Xt: Frontend API endpoint</text>
</g>
<!-- apipoint&#45;&gt;afrontends -->
<g id="edge2" class="edge">
<title>apipoint&#45;&gt;afrontends</title>
<path fill="none" stroke="#000000" d="M790.1099,-213.4383C751.8817,-203.7806 706.4148,-192.2943 668.1535,-182.6282"/>
<polygon fill="#000000" stroke="#000000" points="789.3976,-216.8682 799.9503,-215.9243 791.1122,-210.0815 789.3976,-216.8682"/>
<polygon fill="#000000" stroke="#000000" points="668.6318,-179.1392 658.0791,-180.0831 666.9172,-185.926 668.6318,-179.1392"/>
</g>
<!-- aplugins -->
<g id="node9" class="node">
<title>aplugins</title>
<path fill="none" stroke="#000000" d="M952.5,-180C952.5,-180 790.5,-180 790.5,-180 784.5,-180 778.5,-174 778.5,-168 778.5,-168 778.5,-156 778.5,-156 778.5,-150 784.5,-144 790.5,-144 790.5,-144 952.5,-144 952.5,-144 958.5,-144 964.5,-150 964.5,-156 964.5,-156 964.5,-168 964.5,-168 964.5,-174 958.5,-180 952.5,-180"/>
<text text-anchor="middle" x="871.5" y="-158.3" font-family="Times,serif" font-size="14.00" fill="#000000">Xt: Plugin API endpoint</text>
</g>
<!-- apipoint&#45;&gt;aplugins -->
<g id="edge3" class="edge">
<title>apipoint&#45;&gt;aplugins</title>
<path fill="none" stroke="#000000" d="M871.5,-205.5726C871.5,-200.6792 871.5,-195.5904 871.5,-190.6901"/>
<polygon fill="#000000" stroke="#000000" points="868.0001,-205.8313 871.5,-215.8314 875.0001,-205.8314 868.0001,-205.8313"/>
<polygon fill="#000000" stroke="#000000" points="875.0001,-190.4132 871.5,-180.4133 868.0001,-190.4133 875.0001,-190.4132"/>
</g>
<!-- amodules -->
<g id="node13" class="node">
<title>amodules</title>
<path fill="none" stroke="#000000" d="M1219.5,-180C1219.5,-180 1049.5,-180 1049.5,-180 1043.5,-180 1037.5,-174 1037.5,-168 1037.5,-168 1037.5,-156 1037.5,-156 1037.5,-150 1043.5,-144 1049.5,-144 1049.5,-144 1219.5,-144 1219.5,-144 1225.5,-144 1231.5,-150 1231.5,-156 1231.5,-156 1231.5,-168 1231.5,-168 1231.5,-174 1225.5,-180 1219.5,-180"/>
<text text-anchor="middle" x="1134.5" y="-158.3" font-family="Times,serif" font-size="14.00" fill="#000000">Xt: Module API endpoint</text>
</g>
<!-- apipoint&#45;&gt;amodules -->
<g id="edge4" class="edge">
<title>apipoint&#45;&gt;amodules</title>
<path fill="none" stroke="#000000" d="M947.582,-213.1715C982.5328,-203.6032 1023.8761,-192.2849 1058.7823,-182.7288"/>
<polygon fill="#000000" stroke="#000000" points="946.2474,-209.908 937.5265,-215.9243 948.0958,-216.6595 946.2474,-209.908"/>
<polygon fill="#000000" stroke="#000000" points="1059.7254,-186.0995 1068.4463,-180.0831 1057.877,-179.3479 1059.7254,-186.0995"/>
</g>
<!-- frontends -->
<g id="node4" class="node">
<title>frontends</title>
<path fill="none" stroke="#000000" d="M452.5,-108C452.5,-108 360.5,-108 360.5,-108 354.5,-108 348.5,-102 348.5,-96 348.5,-96 348.5,-84 348.5,-84 348.5,-78 354.5,-72 360.5,-72 360.5,-72 452.5,-72 452.5,-72 458.5,-72 464.5,-78 464.5,-84 464.5,-84 464.5,-96 464.5,-96 464.5,-102 458.5,-108 452.5,-108"/>
<text text-anchor="middle" x="406.5" y="-86.3" font-family="Times,serif" font-size="14.00" fill="#000000">Xt: Frontends</text>
</g>
<!-- afrontends&#45;&gt;frontends -->
<g id="edge5" class="edge">
<title>afrontends&#45;&gt;frontends</title>
<path fill="none" stroke="#000000" d="M531.5076,-140.003C509.1075,-131.043 483.2799,-120.712 460.937,-111.7748"/>
<polygon fill="#000000" stroke="#000000" points="530.4937,-143.3671 541.0784,-143.8314 533.0935,-136.8677 530.4937,-143.3671"/>
<polygon fill="#000000" stroke="#000000" points="462.1796,-108.5023 451.595,-108.038 459.5799,-115.0016 462.1796,-108.5023"/>
</g>
<!-- qtf -->
<g id="node5" class="node">
<title>qtf</title>
<path fill="none" stroke="#000000" d="M123,-36C123,-36 12,-36 12,-36 6,-36 0,-30 0,-24 0,-24 0,-12 0,-12 0,-6 6,0 12,0 12,0 123,0 123,0 129,0 135,-6 135,-12 135,-12 135,-24 135,-24 135,-30 129,-36 123,-36"/>
<text text-anchor="middle" x="67.5" y="-14.3" font-family="Times,serif" font-size="14.00" fill="#000000">Xt: Qt5 frontend</text>
</g>
<!-- frontends&#45;&gt;qtf -->
<g id="edge6" class="edge">
<title>frontends&#45;&gt;qtf</title>
<path fill="none" stroke="#000000" d="M338.425,-76.6063C287.6448,-66.4808 216.3164,-51.9757 145.0712,-36.3194"/>
<polygon fill="#000000" stroke="#000000" points="337.9249,-80.0754 348.4157,-78.5948 339.2914,-73.21 337.9249,-80.0754"/>
<polygon fill="#000000" stroke="#000000" points="145.54,-32.8388 135.0209,-34.1029 144.0324,-39.6745 145.54,-32.8388"/>
</g>
<!-- gtkf -->
<g id="node6" class="node">
<title>gtkf</title>
<path fill="none" stroke="#000000" d="M290,-36C290,-36 165,-36 165,-36 159,-36 153,-30 153,-24 153,-24 153,-12 153,-12 153,-6 159,0 165,0 165,0 290,0 290,0 296,0 302,-6 302,-12 302,-12 302,-24 302,-24 302,-30 296,-36 290,-36"/>
<text text-anchor="middle" x="227.5" y="-14.3" font-family="Times,serif" font-size="14.00" fill="#000000">Xt: GTK3 frontend</text>
</g>
<!-- frontends&#45;&gt;gtkf -->
<g id="edge7" class="edge">
<title>frontends&#45;&gt;gtkf</title>
<path fill="none" stroke="#000000" d="M351.8131,-68.003C329.5374,-59.043 303.8534,-48.712 281.6346,-39.7748"/>
<polygon fill="#000000" stroke="#000000" points="350.747,-71.3467 361.3307,-71.8314 353.3593,-64.8524 350.747,-71.3467"/>
<polygon fill="#000000" stroke="#000000" points="282.9282,-36.5227 272.3444,-36.038 280.3159,-43.017 282.9282,-36.5227"/>
</g>
<!-- tuif -->
<g id="node7" class="node">
<title>tuif</title>
<path fill="none" stroke="#000000" d="M480.5,-36C480.5,-36 332.5,-36 332.5,-36 326.5,-36 320.5,-30 320.5,-24 320.5,-24 320.5,-12 320.5,-12 320.5,-6 326.5,0 332.5,0 332.5,0 480.5,0 480.5,0 486.5,0 492.5,-6 492.5,-12 492.5,-12 492.5,-24 492.5,-24 492.5,-30 486.5,-36 480.5,-36"/>
<text text-anchor="middle" x="406.5" y="-14.3" font-family="Times,serif" font-size="14.00" fill="#000000">Xt: Terminal frontend</text>
</g>
<!-- frontends&#45;&gt;tuif -->
<g id="edge8" class="edge">
<title>frontends&#45;&gt;tuif</title>
<path fill="none" stroke="#000000" d="M406.5,-61.5726C406.5,-56.6792 406.5,-51.5904 406.5,-46.6901"/>
<polygon fill="#000000" stroke="#000000" points="403.0001,-61.8313 406.5,-71.8314 410.0001,-61.8314 403.0001,-61.8313"/>
<polygon fill="#000000" stroke="#000000" points="410.0001,-46.4132 406.5,-36.4133 403.0001,-46.4133 410.0001,-46.4132"/>
</g>
<!-- clif -->
<g id="node8" class="node">
<title>clif</title>
<path fill="none" stroke="#000000" d="M634,-36C634,-36 523,-36 523,-36 517,-36 511,-30 511,-24 511,-24 511,-12 511,-12 511,-6 517,0 523,0 523,0 634,0 634,0 640,0 646,-6 646,-12 646,-12 646,-24 646,-24 646,-30 640,-36 634,-36"/>
<text text-anchor="middle" x="578.5" y="-14.3" font-family="Times,serif" font-size="14.00" fill="#000000">Xt: CLI frontend</text>
</g>
<!-- frontends&#45;&gt;clif -->
<g id="edge9" class="edge">
<title>frontends&#45;&gt;clif</title>
<path fill="none" stroke="#000000" d="M459.3718,-67.8676C480.5242,-59.0131 504.8328,-48.8374 525.9527,-39.9966"/>
<polygon fill="#000000" stroke="#000000" points="457.7758,-64.7414 449.9029,-71.8314 460.4788,-71.1985 457.7758,-64.7414"/>
<polygon fill="#000000" stroke="#000000" points="527.5363,-43.128 535.4092,-36.038 524.8333,-36.6709 527.5363,-43.128"/>
</g>
<!-- plugins -->
<g id="node10" class="node">
<title>plugins</title>
<path fill="none" stroke="#000000" d="M907,-108C907,-108 836,-108 836,-108 830,-108 824,-102 824,-96 824,-96 824,-84 824,-84 824,-78 830,-72 836,-72 836,-72 907,-72 907,-72 913,-72 919,-78 919,-84 919,-84 919,-96 919,-96 919,-102 913,-108 907,-108"/>
<text text-anchor="middle" x="871.5" y="-86.3" font-family="Times,serif" font-size="14.00" fill="#000000">Xt: Plugins</text>
</g>
<!-- aplugins&#45;&gt;plugins -->
<g id="edge10" class="edge">
<title>aplugins&#45;&gt;plugins</title>
<path fill="none" stroke="#000000" d="M871.5,-133.5726C871.5,-128.6792 871.5,-123.5904 871.5,-118.6901"/>
<polygon fill="#000000" stroke="#000000" points="868.0001,-133.8313 871.5,-143.8314 875.0001,-133.8314 868.0001,-133.8313"/>
<polygon fill="#000000" stroke="#000000" points="875.0001,-118.4132 871.5,-108.4133 868.0001,-118.4133 875.0001,-118.4132"/>
</g>
<!-- spell_check -->
<g id="node11" class="node">
<title>spell_check</title>
<path fill="none" stroke="#000000" d="M850.5,-36C850.5,-36 676.5,-36 676.5,-36 670.5,-36 664.5,-30 664.5,-24 664.5,-24 664.5,-12 664.5,-12 664.5,-6 670.5,0 676.5,0 676.5,0 850.5,0 850.5,0 856.5,0 862.5,-6 862.5,-12 862.5,-12 862.5,-24 862.5,-24 862.5,-30 856.5,-36 850.5,-36"/>
<text text-anchor="middle" x="763.5" y="-14.3" font-family="Times,serif" font-size="14.00" fill="#000000">Xt Plugin: Spell checking</text>
</g>
<!-- plugins&#45;&gt;spell_check -->
<g id="edge11" class="edge">
<title>plugins&#45;&gt;spell_check</title>
<path fill="none" stroke="#000000" d="M835.8734,-66.2489C824.0508,-58.3672 810.8942,-49.5961 799.0755,-41.717"/>
<polygon fill="#000000" stroke="#000000" points="833.9851,-69.1965 844.247,-71.8314 837.868,-63.3721 833.9851,-69.1965"/>
<polygon fill="#000000" stroke="#000000" points="801.0062,-38.7977 790.7442,-36.1628 797.1233,-44.6221 801.0062,-38.7977"/>
</g>
<!-- auto_wrap -->
<g id="node12" class="node">
<title>auto_wrap</title>
<path fill="none" stroke="#000000" d="M1066.5,-36C1066.5,-36 892.5,-36 892.5,-36 886.5,-36 880.5,-30 880.5,-24 880.5,-24 880.5,-12 880.5,-12 880.5,-6 886.5,0 892.5,0 892.5,0 1066.5,0 1066.5,0 1072.5,0 1078.5,-6 1078.5,-12 1078.5,-12 1078.5,-24 1078.5,-24 1078.5,-30 1072.5,-36 1066.5,-36"/>
<text text-anchor="middle" x="979.5" y="-14.3" font-family="Times,serif" font-size="14.00" fill="#000000">Xt Plugin: Auto wrapping</text>
</g>
<!-- plugins&#45;&gt;auto_wrap -->
<g id="edge12" class="edge">
<title>plugins&#45;&gt;auto_wrap</title>
<path fill="none" stroke="#000000" d="M907.1266,-66.2489C918.9492,-58.3672 932.1058,-49.5961 943.9245,-41.717"/>
<polygon fill="#000000" stroke="#000000" points="905.132,-63.3721 898.753,-71.8314 909.0149,-69.1965 905.132,-63.3721"/>
<polygon fill="#000000" stroke="#000000" points="945.8767,-44.6221 952.2558,-36.1628 941.9938,-38.7977 945.8767,-44.6221"/>
</g>
<!-- modules -->
<g id="node14" class="node">
<title>modules</title>
<path fill="none" stroke="#000000" d="M1229,-108C1229,-108 1150,-108 1150,-108 1144,-108 1138,-102 1138,-96 1138,-96 1138,-84 1138,-84 1138,-78 1144,-72 1150,-72 1150,-72 1229,-72 1229,-72 1235,-72 1241,-78 1241,-84 1241,-84 1241,-96 1241,-96 1241,-102 1235,-108 1229,-108"/>
<text text-anchor="middle" x="1189.5" y="-86.3" font-family="Times,serif" font-size="14.00" fill="#000000">Xt: Modules</text>
</g>
<!-- amodules&#45;&gt;modules -->
<g id="edge13" class="edge">
<title>amodules&#45;&gt;modules</title>
<path fill="none" stroke="#000000" d="M1154.5029,-135.8144C1159.2747,-129.5677 1164.3726,-122.894 1169.1595,-116.6276"/>
<polygon fill="#000000" stroke="#000000" points="1151.6679,-133.76 1148.3788,-143.8314 1157.2306,-138.0093 1151.6679,-133.76"/>
<polygon fill="#000000" stroke="#000000" points="1172.1452,-118.4847 1175.4343,-108.4133 1166.5825,-114.2353 1172.1452,-118.4847"/>
</g>
<!-- text_edit -->
<g id="node15" class="node">
<title>text_edit</title>
<path fill="none" stroke="#000000" d="M1270.5,-36C1270.5,-36 1108.5,-36 1108.5,-36 1102.5,-36 1096.5,-30 1096.5,-24 1096.5,-24 1096.5,-12 1096.5,-12 1096.5,-6 1102.5,0 1108.5,0 1108.5,0 1270.5,0 1270.5,0 1276.5,0 1282.5,-6 1282.5,-12 1282.5,-12 1282.5,-24 1282.5,-24 1282.5,-30 1276.5,-36 1270.5,-36"/>
<text text-anchor="middle" x="1189.5" y="-14.3" font-family="Times,serif" font-size="14.00" fill="#000000">Xt Module: Text editing</text>
</g>
<!-- modules&#45;&gt;text_edit -->
<g id="edge14" class="edge">
<title>modules&#45;&gt;text_edit</title>
<path fill="none" stroke="#000000" d="M1189.5,-61.5726C1189.5,-56.6792 1189.5,-51.5904 1189.5,-46.6901"/>
<polygon fill="#000000" stroke="#000000" points="1186.0001,-61.8313 1189.5,-71.8314 1193.0001,-61.8314 1186.0001,-61.8313"/>
<polygon fill="#000000" stroke="#000000" points="1193.0001,-46.4132 1189.5,-36.4133 1186.0001,-46.4133 1193.0001,-46.4132"/>
</g>
<!-- completion -->
<g id="node16" class="node">
<title>completion</title>
<path fill="none" stroke="#000000" d="M1506.5,-36C1506.5,-36 1312.5,-36 1312.5,-36 1306.5,-36 1300.5,-30 1300.5,-24 1300.5,-24 1300.5,-12 1300.5,-12 1300.5,-6 1306.5,0 1312.5,0 1312.5,0 1506.5,0 1506.5,0 1512.5,0 1518.5,-6 1518.5,-12 1518.5,-12 1518.5,-24 1518.5,-24 1518.5,-30 1512.5,-36 1506.5,-36"/>
<text text-anchor="middle" x="1409.5" y="-14.3" font-family="Times,serif" font-size="14.00" fill="#000000">Xt Module: Auto completion</text>
</g>
<!-- modules&#45;&gt;completion -->
<g id="edge15" class="edge">
<title>modules&#45;&gt;completion</title>
<path fill="none" stroke="#000000" d="M1250.9135,-69.901C1280.0859,-60.3537 1314.9639,-48.9391 1344.5735,-39.2487"/>
<polygon fill="#000000" stroke="#000000" points="1249.4955,-66.6824 1241.0802,-73.1192 1251.6729,-73.3351 1249.4955,-66.6824"/>
<polygon fill="#000000" stroke="#000000" points="1345.9819,-42.4705 1354.3972,-36.0336 1343.8046,-35.8177 1345.9819,-42.4705"/>
</g>
</g>
</svg>
