<?xml version="1.0" encoding="UTF-8" standalone="no"?>
<!DOCTYPE svg PUBLIC "-//W3C//DTD SVG 1.1//EN"
 "http://www.w3.org/Graphics/SVG/1.1/DTD/svg11.dtd">
<!-- Generated by graphviz version 2.40.1 (20161225.0304)
 -->
<!-- Title: coresubsys Pages: 1 -->
<svg width="1249pt" height="332pt"
 viewBox="0.00 0.00 1248.50 332.00" xmlns="http://www.w3.org/2000/svg" xmlns:xlink="http://www.w3.org/1999/xlink">
<g id="graph0" class="graph" transform="scale(1 1) rotate(0) translate(4 328)">
<title>coresubsys</title>
<polygon fill="#ffffff" stroke="transparent" points="-4,4 -4,-328 1244.5,-328 1244.5,4 -4,4"/>
<!-- core -->
<g id="node1" class="node">
<title>core</title>
<path fill="none" stroke="#000000" d="M731.5,-324C731.5,-324 695.5,-324 695.5,-324 689.5,-324 683.5,-318 683.5,-312 683.5,-312 683.5,-300 683.5,-300 683.5,-294 689.5,-288 695.5,-288 695.5,-288 731.5,-288 731.5,-288 737.5,-288 743.5,-294 743.5,-300 743.5,-300 743.5,-312 743.5,-312 743.5,-318 737.5,-324 731.5,-324"/>
<text text-anchor="middle" x="713.5" y="-302.3" font-family="Times,serif" font-size="14.00" fill="#000000">Xt Core</text>
</g>
<!-- apipoint -->
<g id="node2" class="node">
<title>apipoint</title>
<path fill="none" stroke="#000000" d="M771.5,-252C771.5,-252 655.5,-252 655.5,-252 649.5,-252 643.5,-246 643.5,-240 643.5,-240 643.5,-228 643.5,-228 643.5,-222 649.5,-216 655.5,-216 655.5,-216 771.5,-216 771.5,-216 777.5,-216 783.5,-222 783.5,-228 783.5,-228 783.5,-240 783.5,-240 783.5,-246 777.5,-252 771.5,-252"/>
<text text-anchor="middle" x="713.5" y="-230.3" font-family="Times,serif" font-size="14.00" fill="#000000">Xt: RPC API endpoint</text>
</g>
<!-- core&#45;&gt;apipoint -->
<g id="edge1" class="edge">
<title>core&#45;&gt;apipoint</title>
<path fill="none" stroke="#000000" d="M713.5,-277.5726C713.5,-272.6792 713.5,-267.5904 713.5,-262.6901"/>
<polygon fill="#000000" stroke="#000000" points="710.0001,-277.8313 713.5,-287.8314 717.0001,-277.8314 710.0001,-277.8313"/>
<polygon fill="#000000" stroke="#000000" points="717.0001,-262.4132 713.5,-252.4133 710.0001,-262.4133 717.0001,-262.4132"/>
</g>
<!-- afrontends -->
<g id="node3" class="node">
<title>afrontends</title>
<path fill="none" stroke="#000000" d="M550,-180C550,-180 411,-180 411,-180 405,-180 399,-174 399,-168 399,-168 399,-156 399,-156 399,-150 405,-144 411,-144 411,-144 550,-144 550,-144 556,-144 562,-150 562,-156 562,-156 562,-168 562,-168 562,-174 556,-180 550,-180"/>
<text text-anchor="middle" x="480.5" y="-158.3" font-family="Times,serif" font-size="14.00" fill="#000000">Xt: Frontend API endpoint</text>
</g>
<!-- apipoint&#45;&gt;afrontends -->
<g id="edge2" class="edge">
<title>apipoint&#45;&gt;afrontends</title>
<path fill="none" stroke="#000000" d="M645.2302,-212.9038C614.821,-203.5069 579.0878,-192.4649 548.6881,-183.071"/>
<polygon fill="#000000" stroke="#000000" points="644.4174,-216.3158 655.005,-215.9243 646.4841,-209.6279 644.4174,-216.3158"/>
<polygon fill="#000000" stroke="#000000" points="549.6067,-179.6916 539.0191,-180.0831 547.5399,-186.3796 549.6067,-179.6916"/>
</g>
<!-- aplugins -->
<g id="node9" class="node">
<title>aplugins</title>
<path fill="none" stroke="#000000" d="M776,-180C776,-180 651,-180 651,-180 645,-180 639,-174 639,-168 639,-168 639,-156 639,-156 639,-150 645,-144 651,-144 651,-144 776,-144 776,-144 782,-144 788,-150 788,-156 788,-156 788,-168 788,-168 788,-174 782,-180 776,-180"/>
<text text-anchor="middle" x="713.5" y="-158.3" font-family="Times,serif" font-size="14.00" fill="#000000">Xt: Plugin API endpoint</text>
</g>
<!-- apipoint&#45;&gt;aplugins -->
<g id="edge3" class="edge">
<title>apipoint&#45;&gt;aplugins</title>
<path fill="none" stroke="#000000" d="M713.5,-205.5726C713.5,-200.6792 713.5,-195.5904 713.5,-190.6901"/>
<polygon fill="#000000" stroke="#000000" points="710.0001,-205.8313 713.5,-215.8314 717.0001,-205.8314 710.0001,-205.8313"/>
<polygon fill="#000000" stroke="#000000" points="717.0001,-190.4132 713.5,-180.4133 710.0001,-190.4133 717.0001,-190.4132"/>
</g>
<!-- amodules -->
<g id="node13" class="node">
<title>amodules</title>
<path fill="none" stroke="#000000" d="M995,-180C995,-180 862,-180 862,-180 856,-180 850,-174 850,-168 850,-168 850,-156 850,-156 850,-150 856,-144 862,-144 862,-144 995,-144 995,-144 1001,-144 1007,-150 1007,-156 1007,-156 1007,-168 1007,-168 1007,-174 1001,-180 995,-180"/>
<text text-anchor="middle" x="928.5" y="-158.3" font-family="Times,serif" font-size="14.00" fill="#000000">Xt: Module API endpoint</text>
</g>
<!-- apipoint&#45;&gt;amodules -->
<g id="edge4" class="edge">
<title>apipoint&#45;&gt;amodules</title>
<path fill="none" stroke="#000000" d="M777.2978,-212.6351C804.9671,-203.3692 837.2915,-192.5442 864.9346,-183.287"/>
<polygon fill="#000000" stroke="#000000" points="775.847,-209.4299 767.4761,-215.9243 778.0699,-216.0676 775.847,-209.4299"/>
<polygon fill="#000000" stroke="#000000" points="866.1308,-186.5776 874.5017,-180.0831 863.9079,-179.9399 866.1308,-186.5776"/>
</g>
<!-- frontends -->
<g id="node4" class="node">
<title>frontends</title>
<path fill="none" stroke="#000000" d="M367.5,-108C367.5,-108 299.5,-108 299.5,-108 293.5,-108 287.5,-102 287.5,-96 287.5,-96 287.5,-84 287.5,-84 287.5,-78 293.5,-72 299.5,-72 299.5,-72 367.5,-72 367.5,-72 373.5,-72 379.5,-78 379.5,-84 379.5,-84 379.5,-96 379.5,-96 379.5,-102 373.5,-108 367.5,-108"/>
<text text-anchor="middle" x="333.5" y="-86.3" font-family="Times,serif" font-size="14.00" fill="#000000">Xt: Frontends</text>
</g>
<!-- afrontends&#45;&gt;frontends -->
<g id="edge5" class="edge">
<title>afrontends&#45;&gt;frontends</title>
<path fill="none" stroke="#000000" d="M434.2028,-139.3238C416.8217,-130.8106 397.0777,-121.1401 379.705,-112.631"/>
<polygon fill="#000000" stroke="#000000" points="432.8855,-142.5759 443.4057,-143.8314 435.9646,-136.2894 432.8855,-142.5759"/>
<polygon fill="#000000" stroke="#000000" points="380.8478,-109.2935 370.3276,-108.038 377.7686,-115.5799 380.8478,-109.2935"/>
</g>
<!-- qtf -->
<g id="node5" class="node">
<title>qtf</title>
<path fill="none" stroke="#000000" d="M95,-36C95,-36 12,-36 12,-36 6,-36 0,-30 0,-24 0,-24 0,-12 0,-12 0,-6 6,0 12,0 12,0 95,0 95,0 101,0 107,-6 107,-12 107,-12 107,-24 107,-24 107,-30 101,-36 95,-36"/>
<text text-anchor="middle" x="53.5" y="-14.3" font-family="Times,serif" font-size="14.00" fill="#000000">Xt: Qt5 frontend</text>
</g>
<!-- frontends&#45;&gt;qtf -->
<g id="edge6" class="edge">
<title>frontends&#45;&gt;qtf</title>
<path fill="none" stroke="#000000" d="M277.3346,-76.585C235.6717,-66.5052 177.2546,-52.1038 116.7994,-36.0371"/>
<polygon fill="#000000" stroke="#000000" points="276.6982,-80.0318 287.2403,-78.9765 278.341,-73.2273 276.6982,-80.0318"/>
<polygon fill="#000000" stroke="#000000" points="117.6458,-32.6405 107.0815,-33.4446 115.8414,-39.404 117.6458,-32.6405"/>
</g>
<!-- gtkf -->
<g id="node6" class="node">
<title>gtkf</title>
<path fill="none" stroke="#000000" d="M235.5,-36C235.5,-36 137.5,-36 137.5,-36 131.5,-36 125.5,-30 125.5,-24 125.5,-24 125.5,-12 125.5,-12 125.5,-6 131.5,0 137.5,0 137.5,0 235.5,0 235.5,0 241.5,0 247.5,-6 247.5,-12 247.5,-12 247.5,-24 247.5,-24 247.5,-30 241.5,-36 235.5,-36"/>
<text text-anchor="middle" x="186.5" y="-14.3" font-family="Times,serif" font-size="14.00" fill="#000000">Xt: GTK3 frontend</text>
</g>
<!-- frontends&#45;&gt;gtkf -->
<g id="edge7" class="edge">
<title>frontends&#45;&gt;gtkf</title>
<path fill="none" stroke="#000000" d="M287.2028,-67.3238C269.8217,-58.8106 250.0777,-49.1401 232.705,-40.631"/>
<polygon fill="#000000" stroke="#000000" points="285.8855,-70.5759 296.4057,-71.8314 288.9646,-64.2894 285.8855,-70.5759"/>
<polygon fill="#000000" stroke="#000000" points="233.8478,-37.2935 223.3276,-36.038 230.7686,-43.5799 233.8478,-37.2935"/>
</g>
<!-- tuif -->
<g id="node7" class="node">
<title>tuif</title>
<path fill="none" stroke="#000000" d="M389.5,-36C389.5,-36 277.5,-36 277.5,-36 271.5,-36 265.5,-30 265.5,-24 265.5,-24 265.5,-12 265.5,-12 265.5,-6 271.5,0 277.5,0 277.5,0 389.5,0 389.5,0 395.5,0 401.5,-6 401.5,-12 401.5,-12 401.5,-24 401.5,-24 401.5,-30 395.5,-36 389.5,-36"/>
<text text-anchor="middle" x="333.5" y="-14.3" font-family="Times,serif" font-size="14.00" fill="#000000">Xt: Terminal frontend</text>
</g>
<!-- frontends&#45;&gt;tuif -->
<g id="edge8" class="edge">
<title>frontends&#45;&gt;tuif</title>
<path fill="none" stroke="#000000" d="M333.5,-61.5726C333.5,-56.6792 333.5,-51.5904 333.5,-46.6901"/>
<polygon fill="#000000" stroke="#000000" points="330.0001,-61.8313 333.5,-71.8314 337.0001,-61.8314 330.0001,-61.8313"/>
<polygon fill="#000000" stroke="#000000" points="337.0001,-46.4132 333.5,-36.4133 330.0001,-46.4133 337.0001,-46.4132"/>
</g>
<!-- clif -->
<g id="node8" class="node">
<title>clif</title>
<path fill="none" stroke="#000000" d="M517,-36C517,-36 432,-36 432,-36 426,-36 420,-30 420,-24 420,-24 420,-12 420,-12 420,-6 426,0 432,0 432,0 517,0 517,0 523,0 529,-6 529,-12 529,-12 529,-24 529,-24 529,-30 523,-36 517,-36"/>
<text text-anchor="middle" x="474.5" y="-14.3" font-family="Times,serif" font-size="14.00" fill="#000000">Xt: CLI frontend</text>
</g>
<!-- frontends&#45;&gt;clif -->
<g id="edge9" class="edge">
<title>frontends&#45;&gt;clif</title>
<path fill="none" stroke="#000000" d="M378.1391,-67.2055C394.6933,-58.7524 413.4558,-49.1715 429.9978,-40.7246"/>
<polygon fill="#000000" stroke="#000000" points="376.3946,-64.1664 369.0803,-71.8314 379.5781,-70.4007 376.3946,-64.1664"/>
<polygon fill="#000000" stroke="#000000" points="431.6168,-43.8278 438.9311,-36.1628 428.4333,-37.5935 431.6168,-43.8278"/>
</g>
<!-- plugins -->
<g id="node10" class="node">
<title>plugins</title>
<path fill="none" stroke="#000000" d="M740.5,-108C740.5,-108 686.5,-108 686.5,-108 680.5,-108 674.5,-102 674.5,-96 674.5,-96 674.5,-84 674.5,-84 674.5,-78 680.5,-72 686.5,-72 686.5,-72 740.5,-72 740.5,-72 746.5,-72 752.5,-78 752.5,-84 752.5,-84 752.5,-96 752.5,-96 752.5,-102 746.5,-108 740.5,-108"/>
<text text-anchor="middle" x="713.5" y="-86.3" font-family="Times,serif" font-size="14.00" fill="#000000">Xt: Plugins</text>
</g>
<!-- aplugins&#45;&gt;plugins -->
<g id="edge10" class="edge">
<title>aplugins&#45;&gt;plugins</title>
<path fill="none" stroke="#000000" d="M713.5,-133.5726C713.5,-128.6792 713.5,-123.5904 713.5,-118.6901"/>
<polygon fill="#000000" stroke="#000000" points="710.0001,-133.8313 713.5,-143.8314 717.0001,-133.8314 710.0001,-133.8313"/>
<polygon fill="#000000" stroke="#000000" points="717.0001,-118.4132 713.5,-108.4133 710.0001,-118.4133 717.0001,-118.4132"/>
</g>
<!-- spell_check -->
<g id="node11" class="node">
<title>spell_check</title>
<path fill="none" stroke="#000000" d="M692,-36C692,-36 559,-36 559,-36 553,-36 547,-30 547,-24 547,-24 547,-12 547,-12 547,-6 553,0 559,0 559,0 692,0 692,0 698,0 704,-6 704,-12 704,-12 704,-24 704,-24 704,-30 698,-36 692,-36"/>
<text text-anchor="middle" x="625.5" y="-14.3" font-family="Times,serif" font-size="14.00" fill="#000000">Xt Plugin: Spell checking</text>
</g>
<!-- plugins&#45;&gt;spell_check -->
<g id="edge11" class="edge">
<title>plugins&#45;&gt;spell_check</title>
<path fill="none" stroke="#000000" d="M683.4601,-65.4219C674.4839,-58.0777 664.6429,-50.026 655.6591,-42.6756"/>
<polygon fill="#000000" stroke="#000000" points="681.3379,-68.2078 691.2939,-71.8314 685.7706,-62.7901 681.3379,-68.2078"/>
<polygon fill="#000000" stroke="#000000" points="657.655,-39.7864 647.699,-36.1628 653.2223,-45.2041 657.655,-39.7864"/>
</g>
<!-- auto_wrap -->
<g id="node12" class="node">
<title>auto_wrap</title>
<path fill="none" stroke="#000000" d="M868.5,-36C868.5,-36 734.5,-36 734.5,-36 728.5,-36 722.5,-30 722.5,-24 722.5,-24 722.5,-12 722.5,-12 722.5,-6 728.5,0 734.5,0 734.5,0 868.5,0 868.5,0 874.5,0 880.5,-6 880.5,-12 880.5,-12 880.5,-24 880.5,-24 880.5,-30 874.5,-36 868.5,-36"/>
<text text-anchor="middle" x="801.5" y="-14.3" font-family="Times,serif" font-size="14.00" fill="#000000">Xt Plugin: Auto wrapping</text>
</g>
<!-- plugins&#45;&gt;auto_wrap -->
<g id="edge12" class="edge">
<title>plugins&#45;&gt;auto_wrap</title>
<path fill="none" stroke="#000000" d="M743.5399,-65.4219C752.5161,-58.0777 762.3571,-50.026 771.3409,-42.6756"/>
<polygon fill="#000000" stroke="#000000" points="741.2294,-62.7901 735.7061,-71.8314 745.6621,-68.2078 741.2294,-62.7901"/>
<polygon fill="#000000" stroke="#000000" points="773.7777,-45.2041 779.301,-36.1628 769.345,-39.7864 773.7777,-45.2041"/>
</g>
<!-- modules -->
<g id="node14" class="node">
<title>modules</title>
<path fill="none" stroke="#000000" d="M1003.5,-108C1003.5,-108 941.5,-108 941.5,-108 935.5,-108 929.5,-102 929.5,-96 929.5,-96 929.5,-84 929.5,-84 929.5,-78 935.5,-72 941.5,-72 941.5,-72 1003.5,-72 1003.5,-72 1009.5,-72 1015.5,-78 1015.5,-84 1015.5,-84 1015.5,-96 1015.5,-96 1015.5,-102 1009.5,-108 1003.5,-108"/>
<text text-anchor="middle" x="972.5" y="-86.3" font-family="Times,serif" font-size="14.00" fill="#000000">Xt: Modules</text>
</g>
<!-- amodules&#45;&gt;modules -->
<g id="edge13" class="edge">
<title>amodules&#45;&gt;modules</title>
<path fill="none" stroke="#000000" d="M944.8429,-135.257C948.4266,-129.3929 952.2251,-123.1772 955.8217,-117.2918"/>
<polygon fill="#000000" stroke="#000000" points="941.8311,-133.4734 939.6031,-143.8314 947.8041,-137.1236 941.8311,-133.4734"/>
<polygon fill="#000000" stroke="#000000" points="959.0194,-118.7712 961.2474,-108.4133 953.0464,-115.121 959.0194,-118.7712"/>
</g>
<!-- text_edit -->
<g id="node15" class="node">
<title>text_edit</title>
<path fill="none" stroke="#000000" d="M1034.5,-36C1034.5,-36 910.5,-36 910.5,-36 904.5,-36 898.5,-30 898.5,-24 898.5,-24 898.5,-12 898.5,-12 898.5,-6 904.5,0 910.5,0 910.5,0 1034.5,0 1034.5,0 1040.5,0 1046.5,-6 1046.5,-12 1046.5,-12 1046.5,-24 1046.5,-24 1046.5,-30 1040.5,-36 1034.5,-36"/>
<text text-anchor="middle" x="972.5" y="-14.3" font-family="Times,serif" font-size="14.00" fill="#000000">Xt Module: Text editing</text>
</g>
<!-- modules&#45;&gt;text_edit -->
<g id="edge14" class="edge">
<title>modules&#45;&gt;text_edit</title>
<path fill="none" stroke="#000000" d="M972.5,-61.5726C972.5,-56.6792 972.5,-51.5904 972.5,-46.6901"/>
<polygon fill="#000000" stroke="#000000" points="969.0001,-61.8313 972.5,-71.8314 976.0001,-61.8314 969.0001,-61.8313"/>
<polygon fill="#000000" stroke="#000000" points="976.0001,-46.4132 972.5,-36.4133 969.0001,-46.4133 976.0001,-46.4132"/>
</g>
<!-- completion -->
<g id="node16" class="node">
<title>completion</title>
<path fill="none" stroke="#000000" d="M1228.5,-36C1228.5,-36 1076.5,-36 1076.5,-36 1070.5,-36 1064.5,-30 1064.5,-24 1064.5,-24 1064.5,-12 1064.5,-12 1064.5,-6 1070.5,0 1076.5,0 1076.5,0 1228.5,0 1228.5,0 1234.5,0 1240.5,-6 1240.5,-12 1240.5,-12 1240.5,-24 1240.5,-24 1240.5,-30 1234.5,-36 1228.5,-36"/>
<text text-anchor="middle" x="1152.5" y="-14.3" font-family="Times,serif" font-size="14.00" fill="#000000">Xt Module: Auto completion</text>
</g>
<!-- modules&#45;&gt;completion -->
<g id="edge15" class="edge">
<title>modules&#45;&gt;completion</title>
<path fill="none" stroke="#000000" d="M1024.9657,-69.0137C1047.8763,-59.8495 1074.7403,-49.1039 1097.889,-39.8444"/>
<polygon fill="#000000" stroke="#000000" points="1023.5994,-65.7906 1015.6145,-72.7542 1026.1991,-72.2899 1023.5994,-65.7906"/>
<polygon fill="#000000" stroke="#000000" points="1099.2406,-43.0735 1107.2255,-36.1098 1096.6408,-36.5741 1099.2406,-43.0735"/>
</g>
</g>
</svg>
