<?xml version="1.0" encoding="UTF-8" standalone="no"?>
<!DOCTYPE svg PUBLIC "-//W3C//DTD SVG 1.1//EN"
 "http://www.w3.org/Graphics/SVG/1.1/DTD/svg11.dtd">
<!-- Generated by graphviz version 2.40.1 (20161225.0304)
 -->
<!-- Title: coresubsys Pages: 1 -->
<svg width="1252pt" height="332pt"
 viewBox="0.00 0.00 1251.50 332.00" xmlns="http://www.w3.org/2000/svg" xmlns:xlink="http://www.w3.org/1999/xlink">
<g id="graph0" class="graph" transform="scale(1 1) rotate(0) translate(4 328)">
<title>coresubsys</title>
<polygon fill="#ffffff" stroke="transparent" points="-4,4 -4,-328 1247.5,-328 1247.5,4 -4,4"/>
<!-- core -->
<g id="node1" class="node">
<title>core</title>
<path fill="none" stroke="#000000" d="M732.5,-324C732.5,-324 696.5,-324 696.5,-324 690.5,-324 684.5,-318 684.5,-312 684.5,-312 684.5,-300 684.5,-300 684.5,-294 690.5,-288 696.5,-288 696.5,-288 732.5,-288 732.5,-288 738.5,-288 744.5,-294 744.5,-300 744.5,-300 744.5,-312 744.5,-312 744.5,-318 738.5,-324 732.5,-324"/>
<text text-anchor="middle" x="714.5" y="-302.3" font-family="Times,serif" font-size="14.00" fill="#000000">Xt Core</text>
</g>
<!-- apipoint -->
<g id="node2" class="node">
<title>apipoint</title>
<path fill="none" stroke="#000000" d="M772.5,-252C772.5,-252 656.5,-252 656.5,-252 650.5,-252 644.5,-246 644.5,-240 644.5,-240 644.5,-228 644.5,-228 644.5,-222 650.5,-216 656.5,-216 656.5,-216 772.5,-216 772.5,-216 778.5,-216 784.5,-222 784.5,-228 784.5,-228 784.5,-240 784.5,-240 784.5,-246 778.5,-252 772.5,-252"/>
<text text-anchor="middle" x="714.5" y="-230.3" font-family="Times,serif" font-size="14.00" fill="#000000">Xt: RPC API endpoint</text>
</g>
<!-- core&#45;&gt;apipoint -->
<g id="edge1" class="edge">
<title>core&#45;&gt;apipoint</title>
<path fill="none" stroke="#000000" d="M714.5,-277.5726C714.5,-272.6792 714.5,-267.5904 714.5,-262.6901"/>
<polygon fill="#000000" stroke="#000000" points="711.0001,-277.8313 714.5,-287.8314 718.0001,-277.8314 711.0001,-277.8313"/>
<polygon fill="#000000" stroke="#000000" points="718.0001,-262.4132 714.5,-252.4133 711.0001,-262.4133 718.0001,-262.4132"/>
</g>
<!-- afrontends -->
<g id="node3" class="node">
<title>afrontends</title>
<path fill="none" stroke="#000000" d="M551,-180C551,-180 412,-180 412,-180 406,-180 400,-174 400,-168 400,-168 400,-156 400,-156 400,-150 406,-144 412,-144 412,-144 551,-144 551,-144 557,-144 563,-150 563,-156 563,-156 563,-168 563,-168 563,-174 557,-180 551,-180"/>
<text text-anchor="middle" x="481.5" y="-158.3" font-family="Times,serif" font-size="14.00" fill="#000000">Xt: Frontend API endpoint</text>
</g>
<!-- apipoint&#45;&gt;afrontends -->
<g id="edge2" class="edge">
<title>apipoint&#45;&gt;afrontends</title>
<path fill="none" stroke="#000000" d="M646.2302,-212.9038C615.821,-203.5069 580.0878,-192.4649 549.6881,-183.071"/>
<polygon fill="#000000" stroke="#000000" points="645.4174,-216.3158 656.005,-215.9243 647.4841,-209.6279 645.4174,-216.3158"/>
<polygon fill="#000000" stroke="#000000" points="550.6067,-179.6916 540.0191,-180.0831 548.5399,-186.3796 550.6067,-179.6916"/>
</g>
<!-- aplugins -->
<g id="node9" class="node">
<title>aplugins</title>
<path fill="none" stroke="#000000" d="M777,-180C777,-180 652,-180 652,-180 646,-180 640,-174 640,-168 640,-168 640,-156 640,-156 640,-150 646,-144 652,-144 652,-144 777,-144 777,-144 783,-144 789,-150 789,-156 789,-156 789,-168 789,-168 789,-174 783,-180 777,-180"/>
<text text-anchor="middle" x="714.5" y="-158.3" font-family="Times,serif" font-size="14.00" fill="#000000">Xt: Plugin API endpoint</text>
</g>
<!-- apipoint&#45;&gt;aplugins -->
<g id="edge3" class="edge">
<title>apipoint&#45;&gt;aplugins</title>
<path fill="none" stroke="#000000" d="M714.5,-205.5726C714.5,-200.6792 714.5,-195.5904 714.5,-190.6901"/>
<polygon fill="#000000" stroke="#000000" points="711.0001,-205.8313 714.5,-215.8314 718.0001,-205.8314 711.0001,-205.8313"/>
<polygon fill="#000000" stroke="#000000" points="718.0001,-190.4132 714.5,-180.4133 711.0001,-190.4133 718.0001,-190.4132"/>
</g>
<!-- amodules -->
<g id="node13" class="node">
<title>amodules</title>
<path fill="none" stroke="#000000" d="M997,-180C997,-180 864,-180 864,-180 858,-180 852,-174 852,-168 852,-168 852,-156 852,-156 852,-150 858,-144 864,-144 864,-144 997,-144 997,-144 1003,-144 1009,-150 1009,-156 1009,-156 1009,-168 1009,-168 1009,-174 1003,-180 997,-180"/>
<text text-anchor="middle" x="930.5" y="-158.3" font-family="Times,serif" font-size="14.00" fill="#000000">Xt: Module API endpoint</text>
</g>
<!-- apipoint&#45;&gt;amodules -->
<g id="edge4" class="edge">
<title>apipoint&#45;&gt;amodules</title>
<path fill="none" stroke="#000000" d="M778.5946,-212.6351C806.3925,-203.3692 838.8673,-192.5442 866.6389,-183.287"/>
<polygon fill="#000000" stroke="#000000" points="777.1071,-209.4416 768.7271,-215.9243 779.3208,-216.0823 777.1071,-209.4416"/>
<polygon fill="#000000" stroke="#000000" points="867.8706,-186.5659 876.2506,-180.0831 865.6569,-179.9251 867.8706,-186.5659"/>
</g>
<!-- frontends -->
<g id="node4" class="node">
<title>frontends</title>
<path fill="none" stroke="#000000" d="M368.5,-108C368.5,-108 300.5,-108 300.5,-108 294.5,-108 288.5,-102 288.5,-96 288.5,-96 288.5,-84 288.5,-84 288.5,-78 294.5,-72 300.5,-72 300.5,-72 368.5,-72 368.5,-72 374.5,-72 380.5,-78 380.5,-84 380.5,-84 380.5,-96 380.5,-96 380.5,-102 374.5,-108 368.5,-108"/>
<text text-anchor="middle" x="334.5" y="-86.3" font-family="Times,serif" font-size="14.00" fill="#000000">Xt: Frontends</text>
</g>
<!-- afrontends&#45;&gt;frontends -->
<g id="edge5" class="edge">
<title>afrontends&#45;&gt;frontends</title>
<path fill="none" stroke="#000000" d="M435.2028,-139.3238C417.8217,-130.8106 398.0777,-121.1401 380.705,-112.631"/>
<polygon fill="#000000" stroke="#000000" points="433.8855,-142.5759 444.4057,-143.8314 436.9646,-136.2894 433.8855,-142.5759"/>
<polygon fill="#000000" stroke="#000000" points="381.8478,-109.2935 371.3276,-108.038 378.7686,-115.5799 381.8478,-109.2935"/>
</g>
<!-- qtf -->
<g id="node5" class="node">
<title>qtf</title>
<path fill="none" stroke="#000000" d="M95,-36C95,-36 12,-36 12,-36 6,-36 0,-30 0,-24 0,-24 0,-12 0,-12 0,-6 6,0 12,0 12,0 95,0 95,0 101,0 107,-6 107,-12 107,-12 107,-24 107,-24 107,-30 101,-36 95,-36"/>
<text text-anchor="middle" x="53.5" y="-14.3" font-family="Times,serif" font-size="14.00" fill="#000000">Xt: Qt5 frontend</text>
</g>
<!-- frontends&#45;&gt;qtf -->
<g id="edge6" class="edge">
<title>frontends&#45;&gt;qtf</title>
<path fill="none" stroke="#000000" d="M278.494,-76.7055C236.6174,-66.6325 177.7251,-52.1888 116.863,-36.0524"/>
<polygon fill="#000000" stroke="#000000" points="277.9062,-80.1637 288.4469,-79.0943 279.5399,-73.357 277.9062,-80.1637"/>
<polygon fill="#000000" stroke="#000000" points="117.6443,-32.6386 107.0804,-33.4485 115.8437,-39.4031 117.6443,-32.6386"/>
</g>
<!-- gtkf -->
<g id="node6" class="node">
<title>gtkf</title>
<path fill="none" stroke="#000000" d="M235.5,-36C235.5,-36 137.5,-36 137.5,-36 131.5,-36 125.5,-30 125.5,-24 125.5,-24 125.5,-12 125.5,-12 125.5,-6 131.5,0 137.5,0 137.5,0 235.5,0 235.5,0 241.5,0 247.5,-6 247.5,-12 247.5,-12 247.5,-24 247.5,-24 247.5,-30 241.5,-36 235.5,-36"/>
<text text-anchor="middle" x="186.5" y="-14.3" font-family="Times,serif" font-size="14.00" fill="#000000">Xt: GTK3 frontend</text>
</g>
<!-- frontends&#45;&gt;gtkf -->
<g id="edge7" class="edge">
<title>frontends&#45;&gt;gtkf</title>
<path fill="none" stroke="#000000" d="M287.8879,-67.3238C270.3885,-58.8106 250.5102,-49.1401 233.0194,-40.631"/>
<polygon fill="#000000" stroke="#000000" points="286.6298,-70.604 297.1534,-71.8314 289.6921,-64.3093 286.6298,-70.604"/>
<polygon fill="#000000" stroke="#000000" points="234.1016,-37.2654 223.5781,-36.038 231.0393,-43.56 234.1016,-37.2654"/>
</g>
<!-- tuif -->
<g id="node7" class="node">
<title>tuif</title>
<path fill="none" stroke="#000000" d="M391,-36C391,-36 278,-36 278,-36 272,-36 266,-30 266,-24 266,-24 266,-12 266,-12 266,-6 272,0 278,0 278,0 391,0 391,0 397,0 403,-6 403,-12 403,-12 403,-24 403,-24 403,-30 397,-36 391,-36"/>
<text text-anchor="middle" x="334.5" y="-14.3" font-family="Times,serif" font-size="14.00" fill="#000000">Xt: Terminal frontend</text>
</g>
<!-- frontends&#45;&gt;tuif -->
<g id="edge8" class="edge">
<title>frontends&#45;&gt;tuif</title>
<path fill="none" stroke="#000000" d="M334.5,-61.5726C334.5,-56.6792 334.5,-51.5904 334.5,-46.6901"/>
<polygon fill="#000000" stroke="#000000" points="331.0001,-61.8313 334.5,-71.8314 338.0001,-61.8314 331.0001,-61.8313"/>
<polygon fill="#000000" stroke="#000000" points="338.0001,-46.4132 334.5,-36.4133 331.0001,-46.4133 338.0001,-46.4132"/>
</g>
<!-- clif -->
<g id="node8" class="node">
<title>clif</title>
<path fill="none" stroke="#000000" d="M518,-36C518,-36 433,-36 433,-36 427,-36 421,-30 421,-24 421,-24 421,-12 421,-12 421,-6 427,0 433,0 433,0 518,0 518,0 524,0 530,-6 530,-12 530,-12 530,-24 530,-24 530,-30 524,-36 518,-36"/>
<text text-anchor="middle" x="475.5" y="-14.3" font-family="Times,serif" font-size="14.00" fill="#000000">Xt: CLI frontend</text>
</g>
<!-- frontends&#45;&gt;clif -->
<g id="edge9" class="edge">
<title>frontends&#45;&gt;clif</title>
<path fill="none" stroke="#000000" d="M379.1391,-67.2055C395.6933,-58.7524 414.4558,-49.1715 430.9978,-40.7246"/>
<polygon fill="#000000" stroke="#000000" points="377.3946,-64.1664 370.0803,-71.8314 380.5781,-70.4007 377.3946,-64.1664"/>
<polygon fill="#000000" stroke="#000000" points="432.6168,-43.8278 439.9311,-36.1628 429.4333,-37.5935 432.6168,-43.8278"/>
</g>
<!-- plugins -->
<g id="node10" class="node">
<title>plugins</title>
<path fill="none" stroke="#000000" d="M741.5,-108C741.5,-108 687.5,-108 687.5,-108 681.5,-108 675.5,-102 675.5,-96 675.5,-96 675.5,-84 675.5,-84 675.5,-78 681.5,-72 687.5,-72 687.5,-72 741.5,-72 741.5,-72 747.5,-72 753.5,-78 753.5,-84 753.5,-84 753.5,-96 753.5,-96 753.5,-102 747.5,-108 741.5,-108"/>
<text text-anchor="middle" x="714.5" y="-86.3" font-family="Times,serif" font-size="14.00" fill="#000000">Xt: Plugins</text>
</g>
<!-- aplugins&#45;&gt;plugins -->
<g id="edge10" class="edge">
<title>aplugins&#45;&gt;plugins</title>
<path fill="none" stroke="#000000" d="M714.5,-133.5726C714.5,-128.6792 714.5,-123.5904 714.5,-118.6901"/>
<polygon fill="#000000" stroke="#000000" points="711.0001,-133.8313 714.5,-143.8314 718.0001,-133.8314 711.0001,-133.8313"/>
<polygon fill="#000000" stroke="#000000" points="718.0001,-118.4132 714.5,-108.4133 711.0001,-118.4133 718.0001,-118.4132"/>
</g>
<!-- spell_check -->
<g id="node11" class="node">
<title>spell_check</title>
<path fill="none" stroke="#000000" d="M693,-36C693,-36 560,-36 560,-36 554,-36 548,-30 548,-24 548,-24 548,-12 548,-12 548,-6 554,0 560,0 560,0 693,0 693,0 699,0 705,-6 705,-12 705,-12 705,-24 705,-24 705,-30 699,-36 693,-36"/>
<text text-anchor="middle" x="626.5" y="-14.3" font-family="Times,serif" font-size="14.00" fill="#000000">Xt Plugin: Spell checking</text>
</g>
<!-- plugins&#45;&gt;spell_check -->
<g id="edge11" class="edge">
<title>plugins&#45;&gt;spell_check</title>
<path fill="none" stroke="#000000" d="M684.4601,-65.4219C675.4839,-58.0777 665.6429,-50.026 656.6591,-42.6756"/>
<polygon fill="#000000" stroke="#000000" points="682.3379,-68.2078 692.2939,-71.8314 686.7706,-62.7901 682.3379,-68.2078"/>
<polygon fill="#000000" stroke="#000000" points="658.655,-39.7864 648.699,-36.1628 654.2223,-45.2041 658.655,-39.7864"/>
</g>
<!-- auto_wrap -->
<g id="node12" class="node">
<title>auto_wrap</title>
<path fill="none" stroke="#000000" d="M869.5,-36C869.5,-36 735.5,-36 735.5,-36 729.5,-36 723.5,-30 723.5,-24 723.5,-24 723.5,-12 723.5,-12 723.5,-6 729.5,0 735.5,0 735.5,0 869.5,0 869.5,0 875.5,0 881.5,-6 881.5,-12 881.5,-12 881.5,-24 881.5,-24 881.5,-30 875.5,-36 869.5,-36"/>
<text text-anchor="middle" x="802.5" y="-14.3" font-family="Times,serif" font-size="14.00" fill="#000000">Xt Plugin: Auto wrapping</text>
</g>
<!-- plugins&#45;&gt;auto_wrap -->
<g id="edge12" class="edge">
<title>plugins&#45;&gt;auto_wrap</title>
<path fill="none" stroke="#000000" d="M744.5399,-65.4219C753.5161,-58.0777 763.3571,-50.026 772.3409,-42.6756"/>
<polygon fill="#000000" stroke="#000000" points="742.2294,-62.7901 736.7061,-71.8314 746.6621,-68.2078 742.2294,-62.7901"/>
<polygon fill="#000000" stroke="#000000" points="774.7777,-45.2041 780.301,-36.1628 770.345,-39.7864 774.7777,-45.2041"/>
</g>
<!-- modules -->
<g id="node14" class="node">
<title>modules</title>
<path fill="none" stroke="#000000" d="M1005.5,-108C1005.5,-108 943.5,-108 943.5,-108 937.5,-108 931.5,-102 931.5,-96 931.5,-96 931.5,-84 931.5,-84 931.5,-78 937.5,-72 943.5,-72 943.5,-72 1005.5,-72 1005.5,-72 1011.5,-72 1017.5,-78 1017.5,-84 1017.5,-84 1017.5,-96 1017.5,-96 1017.5,-102 1011.5,-108 1005.5,-108"/>
<text text-anchor="middle" x="974.5" y="-86.3" font-family="Times,serif" font-size="14.00" fill="#000000">Xt: Modules</text>
</g>
<!-- amodules&#45;&gt;modules -->
<g id="edge13" class="edge">
<title>amodules&#45;&gt;modules</title>
<path fill="none" stroke="#000000" d="M946.8429,-135.257C950.4266,-129.3929 954.2251,-123.1772 957.8217,-117.2918"/>
<polygon fill="#000000" stroke="#000000" points="943.8311,-133.4734 941.6031,-143.8314 949.8041,-137.1236 943.8311,-133.4734"/>
<polygon fill="#000000" stroke="#000000" points="961.0194,-118.7712 963.2474,-108.4133 955.0464,-115.121 961.0194,-118.7712"/>
</g>
<!-- text_edit -->
<g id="node15" class="node">
<title>text_edit</title>
<path fill="none" stroke="#000000" d="M1037.5,-36C1037.5,-36 911.5,-36 911.5,-36 905.5,-36 899.5,-30 899.5,-24 899.5,-24 899.5,-12 899.5,-12 899.5,-6 905.5,0 911.5,0 911.5,0 1037.5,0 1037.5,0 1043.5,0 1049.5,-6 1049.5,-12 1049.5,-12 1049.5,-24 1049.5,-24 1049.5,-30 1043.5,-36 1037.5,-36"/>
<text text-anchor="middle" x="974.5" y="-14.3" font-family="Times,serif" font-size="14.00" fill="#000000">Xt Module: Text editing</text>
</g>
<!-- modules&#45;&gt;text_edit -->
<g id="edge14" class="edge">
<title>modules&#45;&gt;text_edit</title>
<path fill="none" stroke="#000000" d="M974.5,-61.5726C974.5,-56.6792 974.5,-51.5904 974.5,-46.6901"/>
<polygon fill="#000000" stroke="#000000" points="971.0001,-61.8313 974.5,-71.8314 978.0001,-61.8314 971.0001,-61.8313"/>
<polygon fill="#000000" stroke="#000000" points="978.0001,-46.4132 974.5,-36.4133 971.0001,-46.4133 978.0001,-46.4132"/>
</g>
<!-- completion -->
<g id="node16" class="node">
<title>completion</title>
<path fill="none" stroke="#000000" d="M1231.5,-36C1231.5,-36 1079.5,-36 1079.5,-36 1073.5,-36 1067.5,-30 1067.5,-24 1067.5,-24 1067.5,-12 1067.5,-12 1067.5,-6 1073.5,0 1079.5,0 1079.5,0 1231.5,0 1231.5,0 1237.5,0 1243.5,-6 1243.5,-12 1243.5,-12 1243.5,-24 1243.5,-24 1243.5,-30 1237.5,-36 1231.5,-36"/>
<text text-anchor="middle" x="1155.5" y="-14.3" font-family="Times,serif" font-size="14.00" fill="#000000">Xt Module: Auto completion</text>
</g>
<!-- modules&#45;&gt;completion -->
<g id="edge15" class="edge">
<title>modules&#45;&gt;completion</title>
<path fill="none" stroke="#000000" d="M1027.2572,-69.0137C1050.2951,-59.8495 1077.3083,-49.1039 1100.5856,-39.8444"/>
<polygon fill="#000000" stroke="#000000" points="1025.8522,-65.8058 1017.854,-72.7542 1028.4395,-72.3101 1025.8522,-65.8058"/>
<polygon fill="#000000" stroke="#000000" points="1101.9758,-43.0582 1109.9739,-36.1098 1099.3884,-36.5539 1101.9758,-43.0582"/>
</g>
</g>
</svg>
