<?xml version="1.0" encoding="UTF-8" standalone="no"?>
<!DOCTYPE svg PUBLIC "-//W3C//DTD SVG 1.1//EN"
 "http://www.w3.org/Graphics/SVG/1.1/DTD/svg11.dtd">
<!-- Generated by graphviz version 2.40.1 (20161225.0304)
 -->
<!-- Title: coresubsys Pages: 1 -->
<svg width="938pt" height="278pt"
 viewBox="0.00 0.00 937.50 278.00" xmlns="http://www.w3.org/2000/svg" xmlns:xlink="http://www.w3.org/1999/xlink">
<g id="graph0" class="graph" transform="scale(1 1) rotate(0) translate(4 274)">
<title>coresubsys</title>
<polygon fill="#ffffff" stroke="transparent" points="-4,4 -4,-274 933.5,-274 933.5,4 -4,4"/>
<!-- xtc -->
<g id="node1" class="node">
<title>xtc</title>
<polygon fill="none" stroke="#000000" points="687,-270 620,-270 620,-234 687,-234 687,-270"/>
<text text-anchor="middle" x="653.5" y="-248.3" font-family="Times,serif" font-size="14.00" fill="#000000">xt&#45;core</text>
</g>
<!-- xtcapi -->
<g id="node2" class="node">
<title>xtcapi</title>
<polygon fill="none" stroke="#000000" points="759,-198 548,-198 548,-144 759,-144 759,-198"/>
<text text-anchor="middle" x="653.5" y="-182.8" font-family="Times,serif" font-size="14.00" fill="#000000">XTC_API</text>
<text text-anchor="middle" x="653.5" y="-151.8" font-family="Times,serif" font-size="14.00" fill="#000000">JSON&#45;RPC API for xt Core.</text>
</g>
<!-- xtc&#45;&gt;xtcapi -->
<g id="edge1" class="edge">
<title>xtc&#45;&gt;xtcapi</title>
<path fill="none" stroke="#000000" d="M653.5,-223.3995C653.5,-218.5411 653.5,-213.4319 653.5,-208.3875"/>
<polygon fill="#000000" stroke="#000000" points="650.0001,-223.6198 653.5,-233.6198 657.0001,-223.6199 650.0001,-223.6198"/>
<polygon fill="#000000" stroke="#000000" points="657.0001,-208.2253 653.5,-198.2254 650.0001,-208.2254 657.0001,-208.2253"/>
</g>
<!-- frontend -->
<g id="node3" class="node">
<title>frontend</title>
<polygon fill="none" stroke="#000000" points="404,-108 279,-108 279,-72 404,-72 404,-108"/>
<text text-anchor="middle" x="341.5" y="-86.3" font-family="Times,serif" font-size="14.00" fill="#000000">xt&#45;frontend&#45;sys</text>
</g>
<!-- xtcapi&#45;&gt;frontend -->
<g id="edge2" class="edge">
<title>xtcapi&#45;&gt;frontend</title>
<path fill="none" stroke="#000000" d="M539.233,-141.3345C497.4004,-130.4741 451.2463,-118.4918 414.0572,-108.837"/>
<polygon fill="#000000" stroke="#000000" points="538.6161,-144.7903 549.1747,-143.9156 540.3751,-138.0149 538.6161,-144.7903"/>
<polygon fill="#000000" stroke="#000000" points="414.8703,-105.4321 404.3116,-106.3069 413.1112,-112.2075 414.8703,-105.4321"/>
</g>
<!-- plugins -->
<g id="node8" class="node">
<title>plugins</title>
<polygon fill="none" stroke="#000000" points="707.5,-108 599.5,-108 599.5,-72 707.5,-72 707.5,-108"/>
<text text-anchor="middle" x="653.5" y="-86.3" font-family="Times,serif" font-size="14.00" fill="#000000">xt&#45;plugin&#45;sys</text>
</g>
<!-- xtcapi&#45;&gt;plugins -->
<g id="edge7" class="edge">
<title>xtcapi&#45;&gt;plugins</title>
<path fill="none" stroke="#000000" d="M653.5,-133.5375C653.5,-128.5027 653.5,-123.4049 653.5,-118.5578"/>
<polygon fill="#000000" stroke="#000000" points="650.0001,-133.5771 653.5,-143.5771 657.0001,-133.5771 650.0001,-133.5771"/>
<polygon fill="#000000" stroke="#000000" points="657.0001,-118.4688 653.5,-108.4688 650.0001,-118.4689 657.0001,-118.4688"/>
</g>
<!-- modules -->
<g id="node11" class="node">
<title>modules</title>
<polygon fill="none" stroke="#000000" points="870.5,-108 754.5,-108 754.5,-72 870.5,-72 870.5,-108"/>
<text text-anchor="middle" x="812.5" y="-86.3" font-family="Times,serif" font-size="14.00" fill="#000000">xt&#45;module&#45;sys</text>
</g>
<!-- xtcapi&#45;&gt;modules -->
<g id="edge9" class="edge">
<title>xtcapi&#45;&gt;modules</title>
<path fill="none" stroke="#000000" d="M715.9639,-139.1787C733.2928,-130.3509 751.7547,-120.9457 767.8433,-112.7497"/>
<polygon fill="#000000" stroke="#000000" points="714.2087,-136.1449 706.887,-143.8028 717.3862,-142.3822 714.2087,-136.1449"/>
<polygon fill="#000000" stroke="#000000" points="769.6936,-115.7351 777.0152,-108.0772 766.516,-109.4978 769.6936,-115.7351"/>
</g>
<!-- qt_frontend -->
<g id="node4" class="node">
<title>qt_frontend</title>
<polygon fill="none" stroke="#000000" points="125,-36 0,-36 0,0 125,0 125,-36"/>
<text text-anchor="middle" x="62.5" y="-14.3" font-family="Times,serif" font-size="14.00" fill="#000000">xt&#45;frontend&#45;qt5</text>
</g>
<!-- frontend&#45;&gt;qt_frontend -->
<g id="edge3" class="edge">
<title>frontend&#45;&gt;qt_frontend</title>
<path fill="none" stroke="#000000" stroke-dasharray="1,5" d="M269.0012,-71.2906C227.783,-60.6537 176.3299,-47.3755 135.0957,-36.7344"/>
<polygon fill="#000000" stroke="#000000" points="268.3296,-74.7319 278.887,-73.8418 270.0788,-67.954 268.3296,-74.7319"/>
<polygon fill="#000000" stroke="#000000" points="135.9435,-33.3386 125.3861,-34.2287 134.1943,-40.1165 135.9435,-33.3386"/>
</g>
<!-- tui_frontend -->
<g id="node5" class="node">
<title>tui_frontend</title>
<polygon fill="none" stroke="#000000" points="264,-36 143,-36 143,0 264,0 264,-36"/>
<text text-anchor="middle" x="203.5" y="-14.3" font-family="Times,serif" font-size="14.00" fill="#000000">xt&#45;frontend&#45;tui</text>
</g>
<!-- frontend&#45;&gt;tui_frontend -->
<g id="edge4" class="edge">
<title>frontend&#45;&gt;tui_frontend</title>
<path fill="none" stroke="#000000" stroke-dasharray="1,5" d="M297.8106,-67.2055C281.7587,-58.8306 263.5852,-49.3488 247.5057,-40.9595"/>
<polygon fill="#000000" stroke="#000000" points="296.1919,-70.3087 306.6768,-71.8314 299.4299,-64.1026 296.1919,-70.3087"/>
<polygon fill="#000000" stroke="#000000" points="248.7969,-37.6855 238.3121,-36.1628 245.5589,-43.8916 248.7969,-37.6855"/>
</g>
<!-- cli_frontend -->
<g id="node6" class="node">
<title>cli_frontend</title>
<polygon fill="none" stroke="#000000" points="401,-36 282,-36 282,0 401,0 401,-36"/>
<text text-anchor="middle" x="341.5" y="-14.3" font-family="Times,serif" font-size="14.00" fill="#000000">xt&#45;frontend&#45;cli</text>
</g>
<!-- frontend&#45;&gt;cli_frontend -->
<g id="edge5" class="edge">
<title>frontend&#45;&gt;cli_frontend</title>
<path fill="none" stroke="#000000" stroke-dasharray="1,5" d="M341.5,-61.5726C341.5,-56.6792 341.5,-51.5904 341.5,-46.6901"/>
<polygon fill="#000000" stroke="#000000" points="338.0001,-61.8313 341.5,-71.8314 345.0001,-61.8314 338.0001,-61.8313"/>
<polygon fill="#000000" stroke="#000000" points="345.0001,-46.4132 341.5,-36.4133 338.0001,-46.4133 345.0001,-46.4132"/>
</g>
<!-- gtk_frontend -->
<g id="node7" class="node">
<title>gtk_frontend</title>
<polygon fill="none" stroke="#000000" points="553.5,-36 419.5,-36 419.5,0 553.5,0 553.5,-36"/>
<text text-anchor="middle" x="486.5" y="-14.3" font-family="Times,serif" font-size="14.00" fill="#000000">xt&#45;frontend&#45;gtk3</text>
</g>
<!-- frontend&#45;&gt;gtk_frontend -->
<g id="edge6" class="edge">
<title>frontend&#45;&gt;gtk_frontend</title>
<path fill="none" stroke="#000000" stroke-dasharray="1,5" d="M387.1673,-67.3238C404.3119,-58.8106 423.7873,-49.1401 440.9236,-40.631"/>
<polygon fill="#000000" stroke="#000000" points="385.4896,-64.2491 378.0896,-71.8314 388.6028,-70.5187 385.4896,-64.2491"/>
<polygon fill="#000000" stroke="#000000" points="442.7735,-43.6203 450.1735,-36.038 439.6603,-37.3506 442.7735,-43.6203"/>
</g>
<!-- completion -->
<g id="node10" class="node">
<title>completion</title>
<polygon fill="none" stroke="#000000" points="735.5,-36 571.5,-36 571.5,0 735.5,0 735.5,-36"/>
<text text-anchor="middle" x="653.5" y="-14.3" font-family="Times,serif" font-size="14.00" fill="#000000">xt&#45;plugin&#45;completion</text>
</g>
<!-- plugins&#45;&gt;completion -->
<g id="edge8" class="edge">
<title>plugins&#45;&gt;completion</title>
<path fill="none" stroke="#000000" d="M653.5,-61.5726C653.5,-56.6792 653.5,-51.5904 653.5,-46.6901"/>
<polygon fill="#000000" stroke="#000000" points="650.0001,-61.8313 653.5,-71.8314 657.0001,-61.8314 650.0001,-61.8313"/>
<polygon fill="#000000" stroke="#000000" points="657.0001,-46.4132 653.5,-36.4133 650.0001,-46.4133 657.0001,-46.4132"/>
</g>
<!-- text_editing -->
<g id="node9" class="node">
<title>text_editing</title>
<polygon fill="none" stroke="#000000" points="929.5,-36 753.5,-36 753.5,0 929.5,0 929.5,-36"/>
<text text-anchor="middle" x="841.5" y="-14.3" font-family="Times,serif" font-size="14.00" fill="#000000">xt&#45;module&#45;text&#45;editing</text>
</g>
<!-- modules&#45;&gt;text_editing -->
<g id="edge10" class="edge">
<title>modules&#45;&gt;text_editing</title>
<path fill="none" stroke="#000000" d="M823.6098,-62.417C825.8009,-56.9771 828.1013,-51.2657 830.2955,-45.8181"/>
<polygon fill="#000000" stroke="#000000" points="820.3075,-61.2478 819.8179,-71.8314 826.8006,-63.8632 820.3075,-61.2478"/>
<polygon fill="#000000" stroke="#000000" points="833.5939,-46.9968 834.0835,-36.4133 827.1008,-44.3815 833.5939,-46.9968"/>
</g>
</g>
</svg>
